<svg width="1440" height="1344" viewBox="0 0 1440 1344" fill="none" xmlns="http://www.w3.org/2000/svg">
<g filter="url(#filter0_d_1_4)">
<g filter="url(#filter1_f_1_4)">
<path d="M774.44 1489.49L744.423 1208.23C1356.6 1142.9 1824.05 803.95 1786.56 452.588L2276.6 400.291C2330.64 906.709 1656.76 1395.33 774.44 1489.49Z" fill="url(#paint0_linear_1_4)"/>
<path d="M1787.11 453.032L2276.15 400.841C2302.89 653.624 2148.12 902.035 1876.36 1099.08C1604.54 1296.18 1215.77 1441.81 774.884 1488.94L744.974 1208.67C1050.93 1175.94 1320.73 1074.88 1509.41 938.075C1698 801.33 1805.63 628.796 1787.11 453.032Z" stroke="black"/>
</g>
<g filter="url(#filter2_f_1_4)">
<path d="M758.794 1342.87L733.565 1106.47C1247.98 1051.57 1640.89 766.676 1609.38 471.422L2021.27 427.466C2066.69 853.11 1500.26 1263.74 758.794 1342.87Z" fill="url(#paint1_linear_1_4)"/>
<path d="M1609.93 471.866L2020.82 428.016C2043.25 640.412 1913.19 849.133 1684.82 1014.71C1456.39 1180.33 1129.7 1302.71 759.238 1342.32L734.115 1106.91C991.19 1079.4 1217.92 994.462 1376.49 879.484C1534.97 764.57 1625.46 619.576 1609.93 471.866Z" stroke="black"/>
</g>
<g filter="url(#filter3_f_1_4)">
<path d="M1068.76 1458.01L1038.74 1176.75C426.566 1242.08 -101.892 1009.41 -139.389 658.049L-629.43 710.346C-575.385 1216.76 186.431 1552.17 1068.76 1458.01Z" fill="url(#paint2_linear_1_4)"/>
<path d="M1038.3 1177.3L1068.21 1457.56C627.303 1504.54 216.551 1444.23 -90.7403 1308.94C-397.961 1173.68 -601.67 963.523 -628.879 710.79L-139.833 658.6C-120.843 834.314 20.7695 980.249 233.97 1074.12C447.271 1168.03 732.326 1209.87 1038.3 1177.3Z" stroke="black"/>
</g>
<g filter="url(#filter4_f_1_4)">
<path d="M774.44 1489.49L744.423 1208.23C1356.6 1142.9 1824.05 803.95 1786.56 452.588L2276.6 400.291C2330.64 906.709 1656.76 1395.33 774.44 1489.49Z" fill="url(#paint3_linear_1_4)"/>
<path d="M1787.11 453.032L2276.15 400.841C2302.89 653.624 2148.12 902.035 1876.36 1099.08C1604.54 1296.18 1215.77 1441.81 774.884 1488.94L744.974 1208.67C1050.93 1175.94 1320.73 1074.88 1509.41 938.075C1698 801.33 1805.63 628.796 1787.11 453.032Z" stroke="black"/>
</g>
<g filter="url(#filter5_f_1_4)">
<path d="M758.794 1342.87L733.565 1106.47C1247.98 1051.57 1640.89 766.676 1609.38 471.422L2021.27 427.466C2066.69 853.11 1500.26 1263.74 758.794 1342.87Z" fill="url(#paint4_linear_1_4)"/>
<path d="M1609.93 471.866L2020.82 428.016C2043.25 640.412 1913.19 849.133 1684.82 1014.71C1456.39 1180.33 1129.7 1302.71 759.238 1342.32L734.115 1106.91C991.19 1079.4 1217.92 994.462 1376.49 879.484C1534.97 764.57 1625.46 619.576 1609.93 471.866Z" stroke="black"/>
</g>
<g filter="url(#filter6_f_1_4)">
<path d="M1068.76 1458.01L1038.74 1176.75C426.566 1242.08 -101.892 1009.41 -139.389 658.049L-629.43 710.346C-575.385 1216.76 186.431 1552.17 1068.76 1458.01Z" fill="url(#paint5_linear_1_4)"/>
<path d="M1038.3 1177.3L1068.21 1457.56C627.303 1504.54 216.551 1444.23 -90.7403 1308.94C-397.961 1173.68 -601.67 963.523 -628.879 710.79L-139.833 658.6C-120.843 834.314 20.7695 980.249 233.97 1074.12C447.271 1168.03 732.326 1209.87 1038.3 1177.3Z" stroke="black"/>
</g>
</g>
<defs>
<filter id="filter0_d_1_4" x="-633.43" y="400.291" width="2917.06" height="1097.2" filterUnits="userSpaceOnUse" color-interpolation-filters="sRGB">
<feFlood flood-opacity="0" result="BackgroundImageFix"/>
<feColorMatrix in="SourceAlpha" type="matrix" values="0 0 0 0 0 0 0 0 0 0 0 0 0 0 0 0 0 0 127 0" result="hardAlpha"/>
<feOffset dy="4"/>
<feGaussianBlur stdDeviation="2"/>
<feComposite in2="hardAlpha" operator="out"/>
<feColorMatrix type="matrix" values="0 0 0 0 0 0 0 0 0 0 0 0 0 0 0 0 0 0 0.25 0"/>
<feBlend mode="normal" in2="BackgroundImageFix" result="effect1_dropShadow_1_4"/>
<feBlend mode="normal" in="SourceGraphic" in2="effect1_dropShadow_1_4" result="shape"/>
</filter>
<filter id="filter1_f_1_4" x="344.423" y="0.291016" width="2335.21" height="1889.2" filterUnits="userSpaceOnUse" color-interpolation-filters="sRGB">
<feFlood flood-opacity="0" result="BackgroundImageFix"/>
<feBlend mode="normal" in="SourceGraphic" in2="BackgroundImageFix" result="shape"/>
<feGaussianBlur stdDeviation="200" result="effect1_foregroundBlur_1_4"/>
</filter>
<filter id="filter2_f_1_4" x="333.565" y="27.4658" width="2090.25" height="1715.41" filterUnits="userSpaceOnUse" color-interpolation-filters="sRGB">
<feFlood flood-opacity="0" result="BackgroundImageFix"/>
<feBlend mode="normal" in="SourceGraphic" in2="BackgroundImageFix" result="shape"/>
<feGaussianBlur stdDeviation="200" result="effect1_foregroundBlur_1_4"/>
</filter>
<filter id="filter3_f_1_4" x="-1029.43" y="258.049" width="2498.19" height="1615.8" filterUnits="userSpaceOnUse" color-interpolation-filters="sRGB">
<feFlood flood-opacity="0" result="BackgroundImageFix"/>
<feBlend mode="normal" in="SourceGraphic" in2="BackgroundImageFix" result="shape"/>
<feGaussianBlur stdDeviation="200" result="effect1_foregroundBlur_1_4"/>
</filter>
<filter id="filter4_f_1_4" x="344.423" y="0.291016" width="2335.21" height="1889.2" filterUnits="userSpaceOnUse" color-interpolation-filters="sRGB">
<feFlood flood-opacity="0" result="BackgroundImageFix"/>
<feBlend mode="normal" in="SourceGraphic" in2="BackgroundImageFix" result="shape"/>
<feGaussianBlur stdDeviation="200" result="effect1_foregroundBlur_1_4"/>
</filter>
<filter id="filter5_f_1_4" x="333.565" y="27.4658" width="2090.25" height="1715.41" filterUnits="userSpaceOnUse" color-interpolation-filters="sRGB">
<feFlood flood-opacity="0" result="BackgroundImageFix"/>
<feBlend mode="normal" in="SourceGraphic" in2="BackgroundImageFix" result="shape"/>
<feGaussianBlur stdDeviation="200" result="effect1_foregroundBlur_1_4"/>
</filter>
<filter id="filter6_f_1_4" x="-1029.43" y="258.049" width="2498.19" height="1615.8" filterUnits="userSpaceOnUse" color-interpolation-filters="sRGB">
<feFlood flood-opacity="0" result="BackgroundImageFix"/>
<feBlend mode="normal" in="SourceGraphic" in2="BackgroundImageFix" result="shape"/>
<feGaussianBlur stdDeviation="200" result="effect1_foregroundBlur_1_4"/>
</filter>
<linearGradient id="paint0_linear_1_4" x1="725.412" y1="1030.25" x2="2325.62" y2="859.476" gradientUnits="userSpaceOnUse">
<stop stop-color="#9403FD"/>
<stop offset="1" stop-color="#00ADFE"/>
</linearGradient>
<linearGradient id="paint1_linear_1_4" x1="717.591" y1="956.955" x2="2062.4" y2="813.438" gradientUnits="userSpaceOnUse">
<stop stop-color="#9403FD"/>
<stop offset="1" stop-color="#00ADFE"/>
</linearGradient>
<linearGradient id="paint2_linear_1_4" x1="1019.77" y1="998.754" x2="-580.443" y2="1169.53" gradientUnits="userSpaceOnUse">
<stop stop-color="#FF12DC"/>
<stop offset="1" stop-color="#FFB912"/>
</linearGradient>
<linearGradient id="paint3_linear_1_4" x1="725.412" y1="1030.25" x2="2325.62" y2="859.476" gradientUnits="userSpaceOnUse">
<stop stop-color="#9403FD"/>
<stop offset="1" stop-color="#00ADFE"/>
</linearGradient>
<linearGradient id="paint4_linear_1_4" x1="717.591" y1="956.955" x2="2062.4" y2="813.438" gradientUnits="userSpaceOnUse">
<stop stop-color="#9403FD"/>
<stop offset="1" stop-color="#00ADFE"/>
</linearGradient>
<linearGradient id="paint5_linear_1_4" x1="1019.77" y1="998.754" x2="-580.443" y2="1169.53" gradientUnits="userSpaceOnUse">
<stop stop-color="#FF12DC"/>
<stop offset="1" stop-color="#FFB912"/>
</linearGradient>
</defs>
</svg>
