<svg width="136" height="38" viewBox="0 0 136 38" fill="none" xmlns="http://www.w3.org/2000/svg">
<path fill-rule="evenodd" clip-rule="evenodd" d="M10.2552 0C4.59139 0 0 4.59139 0 10.2552V27.0363C0 32.7001 4.59139 37.2915 10.2552 37.2915H27.0363C32.7001 37.2915 37.2915 32.7001 37.2915 27.0363V10.2552C37.2915 4.59139 32.7001 0 27.0363 0H10.2552ZM24.9544 16.1291C25.0213 16.1674 25.0767 16.2223 25.1148 16.2884C25.153 16.3544 25.1726 16.4292 25.1717 16.5052C25.1708 16.5811 25.1493 16.6554 25.1096 16.7205L18.2533 28.7003C18.2007 28.7816 18.1219 28.8434 18.0294 28.8758C17.9369 28.9082 17.836 28.9093 17.7428 28.8789C17.6495 28.8485 17.5693 28.7884 17.5149 28.7082C17.4605 28.628 17.4351 28.5322 17.4425 28.4361L18.2042 21.2219H12.5572C12.4794 21.2219 12.403 21.2015 12.3358 21.1629C12.2687 21.1243 12.2133 21.0688 12.1753 21.0021C12.1373 20.9355 12.1182 20.8601 12.1198 20.7837C12.1214 20.7074 12.1438 20.6329 12.1845 20.5678L19.156 8.58683C19.2099 8.50559 19.2901 8.44449 19.3837 8.41339C19.4773 8.38229 19.5788 8.383 19.6719 8.41539C19.7651 8.44778 19.8444 8.50998 19.8971 8.59196C19.9498 8.67395 19.9729 8.77095 19.9626 8.86736L19.0015 16.0707H24.7341C24.8115 16.0707 24.8875 16.0909 24.9544 16.1291Z" fill="black"/>
<path d="M126.611 29.0909C126.195 29.0909 125.802 29.0578 125.432 28.9915C125.063 28.93 124.746 28.8471 124.48 28.7429L125.248 26.2216C125.588 26.3353 125.896 26.4015 126.171 26.4205C126.45 26.4394 126.689 26.3944 126.888 26.2855C127.092 26.1814 127.248 25.9944 127.357 25.7245L127.492 25.3978L123.614 14.0909H127.25L129.26 21.875H129.374L131.412 14.0909H135.07L130.958 26.0441C130.759 26.6407 130.477 27.1662 130.113 27.6208C129.753 28.0801 129.286 28.4399 128.713 28.7003C128.145 28.9607 127.445 29.0909 126.611 29.0909Z" fill="black"/>
<path d="M117.646 25.206C116.496 25.206 115.509 24.9692 114.685 24.4957C113.866 24.0222 113.236 23.3641 112.795 22.5213C112.355 21.6738 112.135 20.6936 112.135 19.581C112.135 18.4635 112.355 17.4834 112.795 16.6406C113.241 15.7931 113.873 15.1326 114.692 14.6591C115.516 14.1856 116.498 13.9489 117.639 13.9489C118.648 13.9489 119.526 14.1311 120.274 14.4957C121.027 14.8603 121.614 15.3764 122.036 16.044C122.462 16.7069 122.687 17.4858 122.71 18.3807H119.464C119.398 17.822 119.209 17.384 118.896 17.0667C118.589 16.7495 118.186 16.5909 117.689 16.5909C117.286 16.5909 116.934 16.7045 116.631 16.9318C116.328 17.1543 116.091 17.4858 115.92 17.9261C115.755 18.3617 115.672 18.9015 115.672 19.5454C115.672 20.1894 115.755 20.7339 115.92 21.179C116.091 21.6193 116.328 21.9531 116.631 22.1804C116.934 22.4029 117.286 22.5142 117.689 22.5142C118.011 22.5142 118.295 22.4455 118.541 22.3082C118.792 22.1709 118.998 21.9697 119.159 21.7045C119.32 21.4346 119.422 21.1079 119.464 20.7244H122.71C122.677 21.624 122.452 22.41 122.036 23.0824C121.624 23.7547 121.044 24.2779 120.295 24.652C119.552 25.0213 118.669 25.206 117.646 25.206Z" fill="black"/>
<path d="M103.351 18.7784V25H99.8782V14.0909H103.181V16.0937H103.301C103.543 15.4261 103.955 14.9029 104.537 14.5241C105.12 14.1406 105.813 13.9489 106.618 13.9489C107.385 13.9489 108.051 14.1217 108.614 14.4673C109.182 14.8082 109.622 15.2864 109.935 15.902C110.252 16.5128 110.408 17.2277 110.404 18.0469V25H106.931V18.7287C106.935 18.1226 106.782 17.6491 106.469 17.3082C106.161 16.9673 105.733 16.7969 105.184 16.7969C104.819 16.7969 104.497 16.8774 104.218 17.0383C103.943 17.1946 103.73 17.4195 103.578 17.7131C103.432 18.0066 103.356 18.3617 103.351 18.7784Z" fill="black"/>
<path d="M91.2347 25.1846C90.5387 25.1846 89.9208 25.0686 89.381 24.8366C88.846 24.5999 88.4222 24.2448 88.1097 23.7713C87.802 23.2931 87.6481 22.6941 87.6481 21.9744C87.6481 21.3684 87.7546 20.857 87.9677 20.4403C88.1807 20.0237 88.4743 19.6851 88.8484 19.4247C89.2224 19.1643 89.6533 18.9678 90.141 18.8352C90.6287 18.6979 91.1495 18.6056 91.7035 18.5582C92.3237 18.5014 92.8233 18.4422 93.202 18.3807C93.5808 18.3144 93.8555 18.2221 94.0259 18.1037C94.2011 17.9806 94.2887 17.8078 94.2887 17.5852V17.5497C94.2887 17.1851 94.1632 16.9034 93.9123 16.7045C93.6613 16.5057 93.3228 16.4062 92.8967 16.4062C92.4374 16.4062 92.0681 16.5057 91.7887 16.7045C91.5093 16.9034 91.3318 17.178 91.256 17.5284L88.0529 17.4148C88.1476 16.7519 88.3914 16.16 88.7844 15.6392C89.1822 15.1136 89.7267 14.7017 90.418 14.4034C91.114 14.1004 91.9497 13.9489 92.9251 13.9489C93.6211 13.9489 94.2627 14.0317 94.8498 14.1974C95.4369 14.3584 95.9483 14.5952 96.3839 14.9077C96.8195 15.2154 97.1556 15.5942 97.3924 16.044C97.6339 16.4938 97.7546 17.0076 97.7546 17.5852V25H94.4876V23.4801H94.4023C94.2082 23.8494 93.9596 24.1619 93.6566 24.4176C93.3583 24.6733 93.0056 24.865 92.5984 24.9929C92.1959 25.1207 91.7413 25.1846 91.2347 25.1846ZM92.3072 22.9119C92.6812 22.9119 93.0174 22.8362 93.3157 22.6846C93.6187 22.5331 93.8602 22.3248 94.0401 22.0596C94.22 21.7898 94.31 21.4773 94.31 21.1221V20.0852C94.2106 20.1373 94.0898 20.1846 93.9478 20.2273C93.8105 20.2699 93.659 20.3101 93.4932 20.348C93.3275 20.3859 93.1571 20.419 92.9819 20.4474C92.8067 20.4758 92.6386 20.5019 92.4776 20.5256C92.1509 20.5776 91.8716 20.6581 91.6395 20.767C91.4123 20.8759 91.2371 21.018 91.114 21.1932C90.9956 21.3636 90.9364 21.5672 90.9364 21.804C90.9364 22.1638 91.0643 22.4384 91.3199 22.6278C91.5804 22.8172 91.9094 22.9119 92.3072 22.9119Z" fill="black"/>
<path d="M79.4165 22.1378L79.4307 17.9972H79.9137L82.9819 14.091H86.9165L82.3569 19.6875H81.4407L79.4165 22.1378ZM76.2844 25V10.4546H79.7574V25H76.2844ZM83.06 25L80.2049 20.4688L82.4918 18.0043L87.0728 25H83.06Z" fill="black"/>
<path d="M67.8665 25V14.0909H71.24V16.0796H71.3537C71.5525 15.3599 71.8769 14.8248 72.3267 14.4744C72.7765 14.1193 73.2997 13.9418 73.8963 13.9418C74.0573 13.9418 74.223 13.9536 74.3934 13.9773C74.5639 13.9962 74.7225 14.027 74.8693 14.0696V17.0881C74.7036 17.0313 74.4858 16.9863 74.2159 16.9531C73.9507 16.92 73.714 16.9034 73.5057 16.9034C73.0937 16.9034 72.722 16.9957 72.3906 17.1804C72.0639 17.3603 71.8058 17.6136 71.6165 17.9404C71.4318 18.2623 71.3395 18.6411 71.3395 19.0767V25H67.8665Z" fill="black"/>
<path d="M62.19 20.2912V14.0909H65.6559V25H62.3462V22.9688H62.2326C61.9911 23.6364 61.5792 24.1667 60.9968 24.5597C60.4191 24.948 59.7207 25.1421 58.9016 25.1421C58.1582 25.1421 57.5048 24.9716 56.9414 24.6307C56.3779 24.2898 55.94 23.814 55.6275 23.2032C55.315 22.5876 55.1563 21.8679 55.1516 21.0441V14.0909H58.6246V20.3622C58.6294 20.9541 58.7856 21.4205 59.0934 21.7614C59.4011 22.1023 59.8202 22.2728 60.3505 22.2728C60.6961 22.2728 61.0063 22.197 61.2809 22.0455C61.5602 21.8892 61.7804 21.6643 61.9414 21.3708C62.1071 21.0725 62.19 20.7126 62.19 20.2912Z" fill="black"/>
<path d="M42.625 13.3097V10.4546H54.919V13.3097H50.5085V25H47.0426V13.3097H42.625Z" fill="black"/>
</svg>
